/* XPM */
static char *_fcbb8a808624a21809bbdef561ca878jBgbAUz9xXLZkfAQ[] = {
/* columns rows colors chars-per-pixel */
"32 32 178 2 ",
"   c #34240F",
".  c #3B270C",
"X  c #3A2C0C",
"o  c #2F2412",
"O  c #352616",
"+  c #352A13",
"@  c #3D2C13",
"#  c #3A271B",
"$  c #342D1B",
"%  c #3D2D1B",
"&  c #3D3112",
"*  c #37311D",
"=  c #3D321C",
"-  c #3D2D20",
";  c #3E3322",
":  c #3F3A24",
">  c #37372F",
",  c #3D362C",
"<  c #422E0E",
"1  c #40300E",
"2  c #432D14",
"3  c #422E1B",
"4  c #443215",
"5  c #4A3213",
"6  c #44331C",
"7  c #49351B",
"8  c #44391E",
"9  c #4C3A1C",
"0  c #523E1C",
"q  c #593B19",
"w  c #443423",
"e  c #4A3623",
"r  c #453825",
"t  c #4C3A22",
"y  c #453528",
"u  c #453C2A",
"i  c #4B3B2A",
"p  c #533C21",
"a  c #533C2A",
"s  c #5C441E",
"d  c #61481F",
"f  c #4C4024",
"g  c #47412B",
"h  c #4D412A",
"j  c #534223",
"k  c #5A4425",
"l  c #5C4C26",
"z  c #53432B",
"x  c #5B452A",
"c  c #5D4B2B",
"v  c #5D5127",
"b  c #5A522E",
"n  c #4B4138",
"m  c #544333",
"M  c #5C4632",
"N  c #5E4D32",
"B  c #5D4A3B",
"V  c #5B5235",
"C  c #634E25",
"Z  c #6C4F27",
"A  c #644D2C",
"S  c #694E2C",
"D  c #64522C",
"F  c #6B532C",
"G  c #675B2E",
"H  c #6D592C",
"J  c #71562D",
"K  c #755C2E",
"L  c #634C33",
"P  c #6A4E36",
"I  c #634C39",
"U  c #694D3B",
"Y  c #655334",
"T  c #6B5534",
"R  c #635A36",
"E  c #6C5A33",
"W  c #65543A",
"Q  c #6B543B",
"!  c #66583C",
"~  c #6B593C",
"^  c #735732",
"/  c #735A33",
"(  c #795D33",
")  c #70563A",
"_  c #735C3B",
"`  c #7C5D3B",
"'  c #69603F",
"]  c #7D6136",
"[  c #74613C",
"{  c #7B623B",
"}  c #6D5C43",
"|  c #735E43",
" . c #7B5E41",
".. c #6F6144",
"X. c #766242",
"o. c #7C6343",
"O. c #7E6843",
"+. c #7C6649",
"@. c #815D39",
"#. c #816236",
"$. c #82643B",
"%. c #82683E",
"&. c #8A683A",
"*. c #87703A",
"=. c #8A7139",
"-. c #95733F",
";. c #96793F",
":. c #836644",
">. c #826B44",
",. c #8C6D43",
"<. c #806648",
"1. c #846C4A",
"2. c #8D6E4B",
"3. c #8B7144",
"4. c #8E7944",
"5. c #8C744B",
"6. c #8F794D",
"7. c #947543",
"8. c #9A7544",
"9. c #947944",
"0. c #9A7C44",
"q. c #92744E",
"w. c #90744F",
"e. c #95754C",
"r. c #94754B",
"t. c #9A744F",
"y. c #987648",
"u. c #957B49",
"i. c #967A4B",
"p. c #94794B",
"a. c #997E49",
"s. c #9C7C49",
"d. c #9B7C4D",
"f. c #9A7E4E",
"g. c #9A7C4C",
"h. c #856E52",
"j. c #8C7450",
"k. c #8F7753",
"l. c #8E7552",
"z. c #887857",
"x. c #8F7952",
"c. c #877658",
"v. c #8E7B5A",
"b. c #907651",
"n. c #917752",
"m. c #927553",
"M. c #927555",
"N. c #947651",
"B. c #997650",
"V. c #9A7757",
"C. c #917A51",
"Z. c #907852",
"A. c #947851",
"S. c #967852",
"D. c #967A53",
"F. c #937C52",
"G. c #907854",
"H. c #947F54",
"J. c #927A53",
"K. c #987B53",
"L. c #997855",
"P. c #997D56",
"I. c #9C7D54",
"U. c #937C5A",
"Y. c #977F5D",
"T. c #997B59",
"R. c #9D7C59",
"E. c #9C7E5A",
"W. c #A17D4B",
"Q. c #9D814C",
"!. c #978150",
"~. c #9B8353",
"^. c #988054",
"/. c #9C8252",
"(. c #9F835B",
"). c #9B835D",
"_. c #A08349",
"`. c #A08558",
/* pixels */
"8 f W Q ` ^ i.a.$ @ / ( 5.z.4 4 C A I ~ A F :.o.~ T o.o.W Y (.s.",
"r f ~ T ) ^ 3.F.u @ J ( >.c.j 4 K / L I A F o.o.Y Y <.<.L c ^.0.",
"% % Y T _ T 9 @ + 4 D.5.0 9 z T 5.1.t 7 A / q.T.z k o.o.x j 5.-.",
"i 6 c l E W + o 7 9 P.D.< @ N T ^.l.2 @ L / q.R.i 9 o. .9 0 5.7.",
"O 3 Y c D W ; n W l q.m.4 7 ~ A p.C.3 3 ~ E { ` z 9 <.o.9 j C.f.",
"+ 7 x c Y W # w T / L.M.2   ~ T 9.m.2 6 ~ F %.@.h 7 1.<.9 j l.e.",
"..~ 7 t M I 6 7 { { $.o.7 @ W A 0.m.@ % Y T D.B.6 < G.5.7 7 +.:.",
"R } 7 a I I 7 4 { :.` _ e @ W E 7.m.2 w N D K.t.& 1 ).U.7 6 | ` ",
"D ! r 3 E E c }  .>.[ [ ) _ D G _ W u r Y J f.i.% 7 6.H.4 @ X.{ ",
"D W i 7 T E c W :.>.[ X.Q ) A v / W u w L F r.p.; 7 3.C.6 6 +.{ ",
"G ~ M z ~ E A W e.3.E E A ) T ~ F Y ; = Y H 5.p.; 4 { >.@ # W A ",
"E T Y Y Y Y Y T Q.5.E Y x T Y ! ^ ~ = = T / { >.w 4 { O.6 - Q A ",
"T D _ ~ x x T T 9.5.T Y F S 7 w ,.1.4 6 _ _ D A O < / o.w y } / ",
"T F >.o.t t ~ E ;.5.c x _ / 2 % r.l.@ 4 X.o.k p @ 5 / _ 6 ; W E ",
") H 6.5.7 6 ~ E 0.C.e 7 >.3.9 i 7.m.X & X.o.j z N C %.o.e r W E ",
"T H !.x.3 % Q F 0.C.3 7 H.^.5 % 8.P.X X X.X.9 z Y F { _ 6 w W H ",
"T J a.5.4 ; } [ ,.Y.6 @ | Q + u W E r w 4.3.3 w Q F / Y % w X.$.",
"Y F i.5.7 w } _ r.>.4 9 Y Q t + W Y r w 9.5.3 % Q T { _ 4 6 | ] ",
"~ / /.C.t r } F / [ 1.h.6 6 W ! | D 3 # *.p.y w W E ,.>.t w X.] ",
"W E i.l.t r ~ A F / m.Y.4 4 ..~ Q l r 3 =.i.e i Y / p.l.t w o.$.",
"i 0 { O.6 w ~ F E J ,.j.4 @ N s e 9 m M Q./.w = T / i.C.7 7 1.3.",
"r 7 { [ % ; ~ F l ( y.N.@ o Y ( % 4 B U _./.w ; Q J i.C.6 7 l.y.",
"w t o.o.% ; W F R ( -.t.8 g 1.7.- & B I ;.f.w : T H i.6.4 6 G.a.",
"- 6 { o.% ; ~ F ' K 8.I.4 u v.W.# X B U 0.Q.% * Q F i.5.2 6 G.s.",
"; 5 e.V.@ + ! C W ( 9.E.3 # } H # r z A N.R.2 w T / D ! 4 2 D.8.",
"* 7 2.M.7 6 Y D ~ ( 3.m.% % ~ F t 7 c E ,.N.2 O T F D k 4 k 1.`.",
": 7  .` p j Y _ Q ^ $.1.w u } E Y l T E Z ( 6 : ~ E 3.,.l.h.9 5 ",
": r T T Y T A T Y F ` O.t h W E ( E Y C d F @ : Q A r.i.L.c.t + ",
"O 6 Y ) 2.1.0 t Y T ` X.7 8 t t ,.>.D D 5.l.4 $ I A %.#.q p N V ",
"2 w W E q.5.4 % Y ~  ._ j f @ 3 ,.5.T E H.G.4 ; I Y { { 5 2 Q c ",
"x z W A %.:.@ , D T _ ) c b 4 e J { Y D E F . % Q Y T ~ x L <.{ ",
"A c } Y $.$.@ > c L P T D R 6 y S T W | T S 2   A T ~ W W Q ` &."
};
